<svg version="1.2" xmlns="http://www.w3.org/2000/svg" viewBox="0 0 1550 294" width="1550" height="294">
	<title>Brenntag_Logo_RGB_Gradient_DeepPurple-svg</title>
	<defs>
		<linearGradient id="g1" x1="-27.9" y1="266" x2="204" y2="34.1" gradientUnits="userSpaceOnUse">
			<stop offset="0" stop-color="#ffffff"/>
			<stop offset="1" stop-color="#ffffff"/>
		</linearGradient>
	</defs>
	<style>
		.s0 { fill: #ffffff } 
		.s1 { fill: url(#g1) } 
	</style>
	<g id="Layer">
		<path id="Wordmark_x5F_DeepPurple_00000007427226615892583920000008579992869252197811_" fill-rule="evenodd" class="s0" d="m1547.8 134.3c0.6 3.3 1.3 12.2 1.3 16.1 0 41.7-29.8 72.6-71.8 72.6-42 0-76.3-35-76.3-76.5 0-41.6 34.3-75.4 76.7-75.4 23 0 43.9 10.4 57.8 26.8l-18.4 14.4c-9.7-11.2-23.8-18-39.4-18-29.1 0-52.2 23.3-52.2 52.2 0 29 23.1 52 51.8 52 24 0 39.1-12 45.1-33.4 0.3-1 1-4.3 1-6.4h-49v-24.4zm-183.4 86.1l-18.4-42.8h-61.2l-18.3 42.9h-24.5l61.2-147h24.4l61.2 146.9zm-70.6-64.2h43.4l-21.7-52.1zm-45.6-82.7v24.5h-55.1v122.5h-24.4v-122.5h-55.1v-24.5zm-189.7 0.1h24.5v146.9h-29.9l-74.1-110.2v110.2h-24.5v-147h30.6l73.4 111.1zm-171.3 0h24.5v146.9h-29.9l-74.1-110.2v110.3h-24.5v-147h30.6l73.4 111zm-146.8 24.5h-73.6v36.7h61.4v24.5h-61.4v36.8h73.6v24.5h-97.9v-147h97.9zm-281.4 79.6c0 23.1-18.4 42.9-44.2 42.9h-72.1v-147h68.3c23.5 0 41.8 19.7 41.8 42.8 0 11.1-3.6 21.2-12.2 27.6 9.8 5.1 18.4 18.1 18.4 33.7zm-48.9-79.6h-42.9v36.7h42.9c10.9 0 18.3-7 18.3-18.4 0-11.3-7.4-18.3-18.3-18.3zm3.9 98c10.9 0 20.5-6.9 20.5-18.3 0-11.3-9.6-18.5-20.5-18.5h-46.8v36.8zm167.3 24.5l-41.3-55.2h-26v55.2h-24.4v-147h65.7c27 0 44.4 20.2 44.4 45.3 0 18.6-8.5 36.4-30.6 43.5l42.8 58.2zm-67.3-122.5v42.8h40.3c14.1 0 20.9-9.1 20.9-22 0-12.8-6.8-20.8-20.9-20.8z"/>
		<path id="Layer" class="s1" d="m232.5 208.3c0 47.2-38.4 85.7-85.7 85.7h-146.8v-0.1-171.4h134.6c20.2 0 36.7-16.5 36.7-36.8 0-20.2-16.5-36.7-36.7-36.7h-85.7v61.2h-48.9v-110.2h134.6c47.2 0 85.7 38.5 85.7 85.7 0 47.3-38.5 85.8-85.7 85.8h-85.7v73.5h97.9c18.8 0 32-13.5 35.5-27.3 3.7-14.5-1.4-28.4-11.5-40.9 16.8-6.7 30.6-17.9 40-29.7 15.8 16.7 21.7 40.2 21.7 61.2z"/>
	</g>
</svg>